<svg width="31" height="50" viewBox="0 0 31 50" fill="none" xmlns="http://www.w3.org/2000/svg">
<path fill-rule="evenodd" clip-rule="evenodd" d="M3.6496 16.2177C4.05284 16.1088 4.30708 16.6856 4.41955 16.9969C4.59302 17.4769 4.54737 17.9727 4.54737 18.5112V44.6697C4.54737 45.6381 4.46702 47.0136 4.55974 47.9331C4.77912 50.11 7.63171 50.7151 8.88124 48.9911C9.00027 48.8269 9.09149 48.6793 9.16852 48.4748C9.34391 48.0091 9.32224 47.5343 9.32224 46.9949V30.6291C9.32224 30.1274 9.20313 29.4742 9.62056 29.2947C9.84309 29.199 10.0659 29.2828 10.1964 29.4181C10.381 29.6096 10.3351 29.8526 10.3341 30.1372L10.334 46.5478C10.334 47.7611 10.2552 48.4652 10.9353 49.2048C11.433 49.7462 12.2621 50.1819 13.3421 49.9235C14.129 49.7352 14.8286 49.0566 15.0762 48.39C15.2958 47.7989 15.2084 45.9742 15.2084 45.2063V15.7835C15.2084 14.5385 15.099 13.8434 15.8962 13.2138C16.5846 12.6703 17.7768 12.8346 18.7789 12.8346C19.8819 12.8346 20.9848 12.8346 22.0879 12.8346C24.2389 12.8346 26.4782 12.8957 28.6181 12.8345C30.6482 12.7765 30.9927 9.71862 28.9854 9.29289C28.4471 9.17868 23.4663 9.24732 22.4904 9.24732H6.12444C4.9482 9.24732 4.22665 9.2323 3.22106 9.66043C1.89142 10.2264 0.62055 11.5583 0.188599 13.1583C-0.0614909 14.0844 0.0106393 15.2261 0.0106393 16.2308V26.0681C0.0106393 27.26 -0.128392 28.0197 0.59872 28.7324C1.18962 29.3115 2.41169 29.2499 3.03886 28.7062C3.74946 28.0902 3.61059 27.1403 3.61059 26.0235C3.61059 24.9265 3.55232 16.5316 3.6496 16.2177ZM9.47248 0.0239535C7.26923 0.260763 5.49527 2.0983 5.70752 4.56002C5.89593 6.74568 7.8427 8.56578 10.2647 8.33121C12.4541 8.11922 14.2454 6.21105 14.02 3.7685C13.8225 1.62758 11.872 -0.233856 9.47248 0.0239535Z" fill="#2957A4"/>
</svg>
