<svg width="19" height="19" viewBox="0 0 19 19" fill="none" xmlns="http://www.w3.org/2000/svg">
<path d="M10.2904 0.48296L12.949 5.22061L18.266 6.27721C18.7432 6.34538 19.0841 6.82255 18.9818 7.33381C18.9477 7.53831 18.8455 7.67465 18.7091 7.81098L15.0622 11.7647L15.7098 17.15C15.7779 17.6612 15.403 18.1043 14.9258 18.1725C14.7213 18.1725 14.5509 18.1384 14.3805 18.0702L9.5065 15.7866L4.56434 18.0702C4.12125 18.3088 3.57591 18.1043 3.37141 17.6271C3.30324 17.4908 3.26915 17.3204 3.26915 17.15L3.91675 11.7647L0.235694 7.7769C-0.105144 7.40198 -0.0710602 6.82255 0.303862 6.48171C0.406113 6.37946 0.576532 6.27721 0.746952 6.27721L6.06403 5.22061L8.68848 0.48296C8.96115 0.0398706 9.5065 -0.130549 9.94958 0.108038C10.0859 0.21029 10.2223 0.346625 10.2904 0.48296ZM11.5515 6.48171L9.5065 2.80066L7.46147 6.41355C7.35921 6.68622 7.12063 6.85664 6.81387 6.9248L2.68973 7.74282L5.51869 10.7763C5.72319 10.9808 5.82544 11.2534 5.79136 11.5602L5.2801 15.7184L9.13157 13.9461C9.33608 13.8438 9.64283 13.8438 9.88142 13.9461L13.6988 15.7184L13.1875 11.5602C13.1535 11.2875 13.2557 11.0149 13.4261 10.8104L16.2892 7.74282L12.165 6.9248C11.9264 6.89072 11.6879 6.7203 11.5515 6.48171Z" fill="#4F4F4F" fill-opacity="0.7"/>
</svg>
