<svg width="21" height="26" viewBox="0 0 21 26" fill="none" xmlns="http://www.w3.org/2000/svg">
<g filter="url(#filter0_d)">
<path fill-rule="evenodd" clip-rule="evenodd" d="M10.2328 6.85075C10.4276 6.85075 10.5552 6.7903 10.656 6.6694C10.7433 6.56866 10.8373 6.40746 10.8373 6.24627C10.8373 5.60821 10.3806 5.58134 10.0112 5.58134C9.52761 5.57463 9.25224 6.85075 10.2328 6.85075ZM12.2746 6.35373C12.2746 5.63508 12.2007 5.25896 11.6298 4.68134C9.76939 2.81418 6.81417 5.70896 8.67462 7.63657C10.1052 9.12761 12.2746 7.89851 12.2746 6.35373ZM5.43059 6.40746C5.43059 9.1209 7.5194 11.6664 8.72835 13.7149C8.8694 13.9567 10.0179 15.7097 10.0716 15.9045L12.9328 11.6396C13.4231 10.9142 13.5709 10.5649 13.9269 9.9806C14.0545 9.77239 14.1283 9.63134 14.2224 9.38955C14.444 8.83881 14.5112 8.77836 14.7194 8.12015C15.1291 6.80373 15.1157 5.32612 14.491 4.08358C13.544 2.19627 11.4619 1.01418 9.20522 1.50448C8.34552 1.69254 7.53954 2.11567 6.94178 2.72015C5.82014 3.84851 5.43059 4.76194 5.43059 6.40746ZM9.92387 0C9.04402 0.0134328 8.39925 0.100746 7.34477 0.644776C6.80746 0.920149 6.12239 1.42388 5.7194 1.83358L5.10149 2.59254C4.5306 3.38507 4 4.68134 4 5.68881C4 8.17388 4.44328 9.31567 5.61865 11.4649C5.75298 11.7134 5.88059 11.9351 6.02835 12.1567L9.03059 16.8313C9.25895 17.2075 9.51417 18 10.0716 18C10.6022 18 10.9045 17.2679 11.1261 16.8985L12.3821 14.9575C12.5433 14.7358 12.691 14.541 12.8455 14.3127C13.8933 12.7813 14.5716 11.9351 15.391 10.2896C15.8075 9.45672 16.4254 7.91194 16.4254 6.95821C16.4254 5.3597 16.3179 4.13731 15.4112 2.7806C15.3037 2.6194 15.2231 2.50522 15.1089 2.36418C14.1552 1.16866 12.3418 0 10.8507 0H9.92387Z" fill="black" fill-opacity="0.5"/>
</g>
<defs>
<filter id="filter0_d" x="0" y="0" width="20.4254" height="26" filterUnits="userSpaceOnUse" color-interpolation-filters="sRGB">
<feFlood flood-opacity="0" result="BackgroundImageFix"/>
<feColorMatrix in="SourceAlpha" type="matrix" values="0 0 0 0 0 0 0 0 0 0 0 0 0 0 0 0 0 0 127 0" result="hardAlpha"/>
<feOffset dy="4"/>
<feGaussianBlur stdDeviation="2"/>
<feColorMatrix type="matrix" values="0 0 0 0 0 0 0 0 0 0 0 0 0 0 0 0 0 0 0.25 0"/>
<feBlend mode="normal" in2="BackgroundImageFix" result="effect1_dropShadow"/>
<feBlend mode="normal" in="SourceGraphic" in2="effect1_dropShadow" result="shape"/>
</filter>
</defs>
</svg>
