<svg width="119" height="52" viewBox="0 0 119 52" fill="none" xmlns="http://www.w3.org/2000/svg">
<path fill-rule="evenodd" clip-rule="evenodd" d="M5.11634 39.8631C8.66106 39.4205 11.8721 42.1511 11.8721 45.7234V46.034C11.8721 49.3124 9.2144 51.9701 5.93603 51.9701C2.65765 51.9701 0 49.3124 0 46.034C0 45.9005 0 45.7669 0 45.6334C0 42.6914 2.19705 40.2275 5.11634 39.8631Z" fill="#C5DA4F"/>
<path fill-rule="evenodd" clip-rule="evenodd" d="M16.8357 38.1671C20.3936 37.5994 23.6521 40.3145 23.6521 43.9173V46.08C23.6521 49.333 21.015 51.97 17.7621 51.97C14.5091 51.97 11.8721 49.333 11.8721 46.08V43.9069C11.8721 41.0413 14.0059 38.6187 16.8357 38.1671Z" fill="#D6E596"/>
<path d="M11.8258 51.9701C11.6987 51.9701 11.5957 51.867 11.5957 51.74V39.1893C11.5957 39.0796 11.6731 38.9852 11.7807 38.9637C11.923 38.9352 12.0559 39.0441 12.0559 39.1893V51.74C12.0559 51.867 11.9529 51.9701 11.8258 51.9701Z" fill="#FEFEFE"/>
<path fill-rule="evenodd" clip-rule="evenodd" d="M28.3617 35.9947C32.047 35.2085 35.5244 38.0038 35.5244 41.772V46.034C35.5244 49.3124 32.8667 51.9701 29.5884 51.9701C26.31 51.9701 23.6523 49.3124 23.6523 46.034V41.7552C23.6523 38.9742 25.6419 36.5749 28.3617 35.9947Z" fill="#F5F2AE"/>
<path d="M35.4793 34.4588C35.5954 34.4297 35.708 34.5176 35.708 34.6373V51.786C35.708 51.8877 35.6256 51.9701 35.5239 51.9701C35.4223 51.9701 35.3398 51.8877 35.3398 51.786V34.6373C35.3398 34.5529 35.3973 34.4792 35.4793 34.4588Z" fill="#FEFEFE"/>
<path fill-rule="evenodd" clip-rule="evenodd" d="M39.9904 33.3245C43.7169 32.3932 47.3965 35.17 47.3965 39.0111V46.034C47.3965 49.3124 44.7388 51.9701 41.4604 51.9701C38.1821 51.9701 35.5244 49.3124 35.5244 46.034V39.0116C35.5244 36.3122 37.3715 33.979 39.9904 33.3245Z" fill="#FFF581"/>
<path d="M47.2645 31.4003C47.4157 31.3399 47.58 31.4512 47.58 31.6139V51.7399C47.58 51.867 47.477 51.97 47.3499 51.97C47.2229 51.97 47.1199 51.867 47.1199 51.7399V31.6139C47.1199 31.5198 47.1772 31.4352 47.2645 31.4003ZM35.5239 51.97C35.4223 51.97 35.3398 51.8876 35.3398 51.7859V34.6373C35.3398 34.5528 35.3973 34.4792 35.4793 34.4587C35.5955 34.4297 35.708 34.5175 35.708 34.6373V51.7859C35.708 51.8876 35.6256 51.97 35.5239 51.97Z" fill="#FEFEFE"/>
<path fill-rule="evenodd" clip-rule="evenodd" d="M51.5919 30.1603C55.3464 29.0481 59.1765 31.8221 59.1765 35.7379V46.0799C59.1765 49.3329 56.5394 51.9699 53.2865 51.9699C50.0335 51.9699 47.3965 49.3329 47.3965 46.0799V35.7224C47.3965 33.1472 49.1228 30.8916 51.5919 30.1603Z" fill="#FCC285"/>
<path d="M59.1368 27.8129C59.288 27.7525 59.4523 27.8638 59.4523 28.0265V51.7398C59.4523 51.8669 59.3493 51.9699 59.2222 51.9699C59.0952 51.9699 58.9922 51.8669 58.9922 51.7398V28.0265C58.9922 27.9324 59.0495 27.8478 59.1368 27.8129ZM47.3502 51.9699C47.2231 51.9699 47.1201 51.8669 47.1201 51.7398V31.6138C47.1201 31.5197 47.1774 31.4351 47.2648 31.4002C47.4159 31.3398 47.5803 31.4511 47.5803 31.6138V51.7398C47.5803 51.8669 47.4773 51.9699 47.3502 51.9699Z" fill="#FEFEFE"/>
<path fill-rule="evenodd" clip-rule="evenodd" d="M63.2176 26.4215C67.0371 25.0788 71.0478 27.8562 71.0478 31.9049V46.0341C71.0478 49.3125 68.3902 51.9701 65.1118 51.9701C61.8334 51.9701 59.1758 49.3125 59.1758 46.0341V32.0268C59.1758 29.4971 60.831 27.2604 63.2176 26.4215Z" fill="#F89F41"/>
<path d="M70.966 23.5889C71.0884 23.5278 71.2324 23.6167 71.2324 23.7536V51.786C71.2324 51.8877 71.15 51.9701 71.0483 51.9701C70.9467 51.9701 70.8642 51.8877 70.8642 51.786V23.7536C70.8642 23.6838 70.9036 23.6201 70.966 23.5889ZM59.2223 51.9701C59.0952 51.9701 58.9922 51.8671 58.9922 51.74V28.0267C58.9922 27.9326 59.0495 27.848 59.1369 27.8131C59.288 27.7527 59.4523 27.864 59.4523 28.0267V51.74C59.4523 51.8671 59.3493 51.9701 59.2223 51.9701Z" fill="#FEFEFE"/>
<path fill-rule="evenodd" clip-rule="evenodd" d="M74.7483 22.1209C78.6125 20.5806 82.9199 23.348 82.9199 27.5079V46.0341C82.9199 49.3125 80.2622 51.9701 76.9839 51.9701C73.7055 51.9701 71.0479 49.3125 71.0479 46.0341V27.5487C71.0479 25.1434 72.514 23.0115 74.7483 22.1209Z" fill="#F5895A"/>
<path d="M71.0483 51.9701C70.9467 51.9701 70.8643 51.8877 70.8643 51.786V23.7536C70.8643 23.6838 70.9037 23.6201 70.966 23.5889C71.0884 23.5278 71.2324 23.6167 71.2324 23.7536V51.786C71.2324 51.8877 71.15 51.9701 71.0483 51.9701Z" fill="#FEFEFE"/>
<path d="M82.7563 18.7895C82.9096 18.6975 83.1047 18.808 83.1047 18.9868V51.7398C83.1047 51.8668 83.0017 51.9698 82.8746 51.9698C82.7475 51.9698 82.6445 51.8668 82.6445 51.7398V18.9868C82.6445 18.906 82.687 18.8311 82.7563 18.7895Z" fill="#FEFEFE"/>
<path fill-rule="evenodd" clip-rule="evenodd" d="M86.3786 17.1802C90.2377 15.4652 94.7 18.2135 94.7 22.4365V46.08C94.7 49.333 92.0629 51.97 88.8099 51.97C85.557 51.97 82.9199 49.333 82.9199 46.08V22.4545C82.9199 20.1638 84.2853 18.1104 86.3786 17.1802Z" fill="#B46067"/>
<path d="M94.6283 13.2707C94.7817 13.1787 94.9767 13.2892 94.9767 13.468V51.7398C94.9767 51.8669 94.8737 51.9699 94.7467 51.9699C94.6196 51.9699 94.5166 51.8669 94.5166 51.7398V13.468C94.5166 13.3872 94.559 13.3123 94.6283 13.2707ZM82.8746 51.9699C82.7475 51.9699 82.6445 51.8669 82.6445 51.7398V18.9869C82.6445 18.9061 82.687 18.8312 82.7563 18.7896C82.9096 18.6976 83.1047 18.8081 83.1047 18.9869V51.7398C83.1047 51.8669 83.0017 51.9699 82.8746 51.9699Z" fill="#FEFEFE"/>
<path fill-rule="evenodd" clip-rule="evenodd" d="M97.9017 11.6254C101.828 9.61144 106.572 12.4238 106.572 16.8368V46.0339C106.572 49.3122 103.915 51.9699 100.636 51.9699C97.3578 51.9699 94.7002 49.3122 94.7002 46.0339V16.8199C94.7002 14.6295 95.9527 12.625 97.9017 11.6254Z" fill="#8E6B83"/>
<path d="M106.489 7.0046C106.626 6.91594 106.757 7.03163 106.757 7.19502V51.786C106.757 51.8877 106.674 51.9701 106.573 51.9701C106.471 51.9701 106.389 51.8877 106.389 51.786V7.20573C106.389 7.12723 106.423 7.0472 106.489 7.0046ZM94.7467 51.9701C94.6196 51.9701 94.5166 51.8671 94.5166 51.74V13.4682C94.5166 13.3873 94.559 13.3124 94.6284 13.2709C94.7817 13.1789 94.9768 13.2894 94.9768 13.4682V51.74C94.9768 51.8671 94.8737 51.9701 94.7467 51.9701Z" fill="#FEFEFE"/>
<path fill-rule="evenodd" clip-rule="evenodd" d="M112.508 51.97C109.23 51.97 106.572 49.3124 106.572 46.034V10.4195C106.572 8.30286 107.694 6.37115 109.526 5.31183C113.462 3.03649 118.444 5.80385 118.444 10.3501V46.034C118.444 49.3124 115.787 51.97 112.508 51.97Z" fill="#7A75B5"/>
<path d="M106.573 51.9701C106.471 51.9701 106.389 51.8877 106.389 51.786V7.19692C106.389 7.12719 106.428 7.06344 106.49 7.03227C106.613 6.97111 106.757 7.06011 106.757 7.19692V51.786C106.757 51.8877 106.674 51.9701 106.573 51.9701Z" fill="#FEFEFE"/>
<path d="M23.6528 36.94C23.7951 36.9116 23.9279 37.0205 23.9279 37.1656V51.7399C23.9279 51.867 23.8249 51.97 23.6979 51.97C23.5708 51.97 23.4678 51.867 23.4678 51.7399V37.1656C23.4678 37.0559 23.5452 36.9615 23.6528 36.94Z" fill="#FEFEFE"/>
</svg>
