<svg width="31" height="50" viewBox="0 0 31 50" fill="none" xmlns="http://www.w3.org/2000/svg">
<path fill-rule="evenodd" clip-rule="evenodd" d="M1.52466 9.37378C-0.303016 9.59757 -0.404081 11.608 0.777308 12.3827C1.24799 12.6913 1.65178 12.6617 2.2618 12.6615C4.58736 12.6609 6.91292 12.6615 9.23847 12.6615C10.0223 12.6615 12.0217 12.5696 12.6517 12.7189C13.4711 12.9129 14.1895 13.7007 14.1643 14.7012C14.1498 15.269 12.8764 19.2463 12.6253 20.1446C11.6429 23.6581 10.476 27.3779 9.43879 30.9131C9.30451 31.3706 9.17768 31.8062 9.04102 32.2602C8.93766 32.6039 8.63847 33.2786 8.86675 33.5861C9.08807 33.8843 9.99833 33.774 10.446 33.774C14.3842 33.774 13.8725 33.4227 13.8725 35.541V46.0061C13.8725 46.932 13.6918 48.5446 14.1994 49.1846C14.643 49.7443 15.6749 50.2966 16.7144 49.8156C17.6851 49.3663 17.748 48.6228 17.748 47.3478V35.1385C17.748 34.629 17.617 33.8666 18.1412 33.7856C18.8209 33.6804 18.7101 34.4712 18.7101 34.9596V47.1689C18.7101 48.4623 18.7043 49.227 19.6213 49.7554C20.4079 50.2085 21.4806 50.0193 22.1862 49.2943C22.7989 48.6648 22.6103 47.1907 22.6103 46.185V35.7199C22.6103 33.5583 22.392 33.774 24.1311 33.774C27.9525 33.774 28.067 34.0894 27.5752 32.4115L23.1947 17.6054C23.0832 17.2222 22.866 16.6379 22.8019 16.2523C22.7345 15.8467 22.9871 14.9479 23.3299 15.1379C23.4863 15.2245 24.0744 17.4401 24.1836 17.78C24.997 20.3115 25.8329 23.2305 26.6102 25.8169C26.7935 26.4267 27.1957 28.0524 27.4542 28.461C27.9475 29.2409 28.9941 29.3708 29.8718 28.7582C30.6961 28.1831 30.3342 27.0864 30.0503 26.1344C29.7773 25.2189 29.5371 24.3558 29.2578 23.4383C28.709 21.6357 28.2 19.8378 27.6658 18.054C27.2803 16.7665 26.4394 13.7942 26.0229 12.7194C25.8529 12.2807 25.6323 11.9125 25.4089 11.5888C24.8156 10.7292 23.5433 9.67545 22.3348 9.4298C21.5257 9.26527 16.6615 9.34858 15.4549 9.34858C11.9666 9.34858 8.47824 9.34858 4.9899 9.34858C3.98869 9.34858 2.45152 9.2604 1.52466 9.37378ZM18.0873 0.0100841C15.8315 0.171369 14.0003 1.95457 14.1281 4.36869C14.2466 6.6096 16.1074 8.42907 18.4967 8.32123C20.7486 8.21959 22.5564 6.31585 22.4442 3.92082C22.3427 1.75568 20.413 -0.156068 18.0873 0.0100841Z" fill="#2957A4"/>
</svg>
