<svg width="25" height="25" viewBox="0 0 25 25" fill="none" xmlns="http://www.w3.org/2000/svg">
<path fill-rule="evenodd" clip-rule="evenodd" d="M1.99653 12.5C1.99653 9.28819 3.47222 6.72743 5.07812 5.12153C5.46875 4.7309 6.03299 4.21007 6.51042 3.90625C6.77083 3.73264 7.03125 3.55903 7.29167 3.38542C8.76736 2.51736 10.7205 1.99653 12.5 1.99653C15.7118 1.99653 18.2726 3.47222 19.8785 5.07812L20.7899 6.11979C21.4844 7.07465 22.0052 7.94271 22.3958 9.11458L22.6997 10.1562C23.1771 12.0226 23.0035 14.0191 22.3958 15.842C22.3524 16.0156 22.309 16.1458 22.2222 16.3194C21.7448 17.4913 21.3108 18.2292 20.5295 19.184C20.3125 19.4444 19.9653 19.7917 19.7483 20.0521L19.2274 20.5295C18.4028 21.1806 17.3611 21.8316 16.3628 22.2222C16.1892 22.2656 16.059 22.3524 15.8854 22.3958C13.8455 23.0903 11.7188 23.1771 9.63542 22.5694C9.46181 22.526 9.3316 22.4826 9.15799 22.3958C8.11632 22.0486 7.42187 21.7014 6.55382 21.0938C6.38021 21.0069 6.2934 20.9201 6.16319 20.8333L5.46875 20.2257C4.38368 19.2274 3.55903 18.1424 2.95139 16.8403C2.43056 15.6684 1.99653 14.1927 1.99653 12.5ZM8.24653 6.77083C8.28993 6.85764 8.50694 7.24826 8.55035 7.33507L9.46181 9.11458C9.54861 9.11458 10.1562 8.68056 10.5469 8.50694C11.2847 8.20312 11.5451 8.11632 12.3264 8.11632C12.5868 8.11632 12.934 8.24653 13.1076 8.37674C13.4115 8.59375 13.4115 8.98438 13.4115 9.3316C13.4115 9.80903 13.1076 10.0694 12.934 10.3299L12.4132 10.8073C12.3264 10.8507 12.3264 10.8941 12.283 10.9375C12.1962 10.9809 12.1962 11.0243 12.1094 11.0677C11.5451 11.5885 11.1111 12.0226 10.8073 12.7604C10.5035 13.4115 10.4167 13.8455 10.4167 14.6701C10.4167 14.974 10.4601 15.2344 10.4601 15.5382H13.1944C13.1944 14.4531 13.3247 13.8889 14.1059 13.151L14.5399 12.7604C14.5833 12.717 14.6267 12.6736 14.7135 12.6302C15.5382 11.9792 16.276 11.1111 16.4931 10.026C16.6233 9.375 16.6667 8.68056 16.5365 8.02951C16.4931 7.89931 16.4497 7.7691 16.4062 7.63889C16.276 7.20486 16.059 6.90104 15.7552 6.59722C15.4948 6.25 14.8872 5.90278 14.4531 5.72917C13.2812 5.25174 11.2413 5.33854 10.1128 5.77257L9.375 6.07639C9.15799 6.16319 8.85417 6.33681 8.68056 6.46701C8.59375 6.51042 8.33333 6.68403 8.24653 6.77083ZM10.1128 17.8819V18.2726C10.1128 18.7066 10.3733 19.2274 10.6337 19.401C11.1545 19.8351 11.9358 19.9653 12.6302 19.7483C12.8906 19.6615 13.0208 19.5747 13.1944 19.401C13.4549 19.184 13.7587 18.75 13.7587 18.2292C13.7587 17.8385 13.7587 17.6215 13.5851 17.2743C13.4549 16.8837 13.1076 16.6233 12.7604 16.4931C12.3698 16.3194 12.1528 16.3194 11.7622 16.3194C11.2847 16.3194 10.8507 16.5799 10.5903 16.7969C10.3733 17.0139 10.1128 17.4479 10.1128 17.8819ZM25 12.283V12.7604C24.9566 13.2812 24.9132 13.8021 24.8698 14.3229C24.783 14.7569 24.6962 15.191 24.6094 15.5816C24.4358 16.1892 24.2622 16.7101 24.0451 17.2743C23.9583 17.4479 23.8715 17.6215 23.8281 17.7951C23.4809 18.5764 22.9167 19.4444 22.3958 20.1389C22.0052 20.6163 21.5712 21.0938 21.1372 21.5278C21.0503 21.6146 21.0069 21.6146 20.9201 21.7014L20.5295 22.0486C20.0521 22.4392 19.7483 22.6562 19.2274 23.0035L18.533 23.4375C18.099 23.6545 17.7083 23.8715 17.2309 24.0451C15.7986 24.6094 14.3663 24.9132 12.8906 25H12.1094C11.6319 24.9566 11.1545 24.9132 10.6337 24.8698C9.4184 24.6962 7.7691 24.1753 6.68403 23.5677C6.03299 23.2205 5.42535 22.8299 4.86111 22.3958C4.42708 22.0486 4.03646 21.7014 3.64583 21.3108C3.34201 21.0069 3.03819 20.6597 2.73438 20.3125C2.69097 20.2257 2.64757 20.1823 2.56076 20.0955C2.47396 19.9653 2.34375 19.8351 2.25694 19.6615C2.17014 19.5312 2.08333 19.401 1.95312 19.2274L1.38889 18.2726C0.954861 17.4045 0.607639 16.5365 0.347222 15.5816C0.0434028 14.2361 0 13.4115 0 12.066C0 9.98264 0.824653 7.46528 1.99653 5.72917C2.56076 4.86111 3.0816 4.21007 3.86285 3.47222C3.90625 3.38542 3.94965 3.34201 4.03646 3.29861C4.12326 3.21181 4.16667 3.1684 4.25347 3.0816L4.86111 2.56076C5.03472 2.47396 5.16493 2.34375 5.29514 2.25694C5.77257 1.95312 6.2066 1.64931 6.68403 1.38889C6.85764 1.30208 7.03125 1.21528 7.20486 1.17188C7.94271 0.824653 8.59375 0.564236 9.4184 0.347222C10.7205 0.0434028 11.5451 0 12.934 0C14.3663 0 15.9288 0.390625 17.2743 0.954861C17.6215 1.08507 17.9688 1.21528 18.316 1.43229C19.6181 2.12674 20.4861 2.82118 21.5278 3.86285C21.6146 3.90625 21.6146 3.94965 21.7014 4.03646L22.0486 4.47049C22.6562 5.25174 23.1337 5.81597 23.5677 6.68403C24.0451 7.55208 24.3924 8.46354 24.6094 9.4184C24.8264 10.3299 24.9566 11.2847 25 12.283Z" fill="#2957A4"/>
</svg>
